<svg data-v-1e121de1="" version="1.0" xmlns="http://www.w3.org/2000/svg" xmlns:xlink="http://www.w3.org/1999/xlink" width="100%" height="100%" viewBox="-1 -4 200 70" preserveAspectRatio="xMidYMid meet" color-interpolation-filters="sRGB" class="el-tooltip" style="margin: auto;">
<g data-v-1e121de1="" fill="#000000" class="icon-text-wrapper icon-svg-group iconsvg" transform="translate(0,0)"><g class="iconsvg-imagesvg" transform="translate(0,0)"><rect fill="#000000" fill-opacity="0" stroke-width="2" x="0" y="0" width="60" height="60" class="image-rect"></rect> <svg x="0" y="0" width="60" height="60" filtersec="colorsb1661297115" class="image-svg-svg primary"><svg xmlns="http://www.w3.org/2000/svg" viewBox="0 0 87.12 87.12"><defs><linearGradient id="afd4b6d27-28f0-4e43-a279-e8c45bb6e25e" x1="-451.48" y1="-506.57" x2="-451.48" y2="-558.35" gradientTransform="rotate(45 -867.319 352.665)" gradientUnits="userSpaceOnUse"><stop offset="0" stop-color="#fc0048"></stop><stop offset="1" stop-color="#f804de"></stop></linearGradient><linearGradient id="b45f323b4-49e5-42eb-b7f6-b7c555a5aca1" x1="-467.73" y1="-536.38" x2="-467.73" y2="-483.45" gradientTransform="rotate(45 -867.319 352.665)" gradientUnits="userSpaceOnUse"><stop offset="0" stop-color="#00f3ff"></stop><stop offset="1" stop-color="#00afd6"></stop></linearGradient><linearGradient id="c3da7f391-88bc-4498-b293-8ba965fd051c" x1="-1278.84" y1="-506.57" x2="-1278.84" y2="-558.35" gradientTransform="scale(-1 1) rotate(-45 11.798 -1705.648)" gradientUnits="userSpaceOnUse"><stop offset="0" stop-color="#c33764"></stop><stop offset="1" stop-color="#1d2671"></stop></linearGradient><linearGradient id="dbfee6754-ba6b-4c2d-b5b7-96cc6f4f0cbc" x1="-1295.09" y1="-536.38" x2="-1295.09" y2="-483.45" gradientTransform="scale(-1 1) rotate(-45 11.798 -1705.648)" gradientUnits="userSpaceOnUse"><stop offset="0" stop-color="#00f3ff"></stop><stop offset="1" stop-color="#00afd6"></stop></linearGradient></defs><g><g><path d="M85.48 0L48.15 37.33a15.39 15.39 0 0 1-11 4.53h-.76a15.39 15.39 0 0 1-7.78-2.62 16 16 0 0 1-2.22-1.85l-1.12-1.12L53.78 7.61A26 26 0 0 1 72.16 0h13.32z" fill="url(#afd4b6d27-28f0-4e43-a279-e8c45bb6e25e)"></path><path d="M55 6.36L21.86 39.52a15.49 15.49 0 0 1-19.55 1.92 16.21 16.21 0 0 1-1.75-1.37c-.19-.17-.37-.36-.55-.54L25.55 14A26 26 0 0 1 44 6.35h11z" fill="url(#b45f323b4-49e5-42eb-b7f6-b7c555a5aca1)"></path><path d="M87.12 1.64L49.8 39a15.37 15.37 0 0 0-4.53 11v.76a15.18 15.18 0 0 0 2.62 7.78 16.92 16.92 0 0 0 1.86 2.23L50.91 62l28.6-28.6A26 26 0 0 0 87.12 15V4.37v-.3z" fill="url(#c3da7f391-88bc-4498-b293-8ba965fd051c)"></path><path d="M80.76 32.1L47.6 65.26a15.52 15.52 0 0 0-1.92 19.55 16.31 16.31 0 0 0 1.38 1.75c.17.19.35.38.53.55l25.56-25.53a26.11 26.11 0 0 0 7.62-18.4v-5.44-.11z" fill="url(#dbfee6754-ba6b-4c2d-b5b7-96cc6f4f0cbc)"></path></g></g></svg></svg> <!----></g> <g transform="translate(67.00000381469727,7.872001647949219)" mask="url(#c45ed80a-dc15-450e-8783-1b3c0fe0165d)"><g fill-rule="" class="tp-name iconsvg-namesvg" transform="translate(0,0)"><g><path d="M21.82-26.55Q24.75-26.55 26.30-26.10Q27.86-25.65 28.44-24.64Q29.02-23.63 29.02-21.73L29.02-21.73L29.02-5.26Q29.02-3.38 28.44-2.36Q27.86-1.35 26.30-0.90Q24.75-0.45 21.82-0.45L21.82-0.45L11.03-0.45L11.03-4.32L19.71-4.32Q20.65-4.32 21.24-4.86Q21.82-5.40 21.82-6.57L21.82-6.57L21.82-20.43Q21.82-21.60 21.24-22.14Q20.65-22.68 19.71-22.68L19.71-22.68L9.22-22.68L9.22-0.45L2.02-0.45L2.02-26.55L21.82-26.55ZM33.07-3.65L33.07-14.63Q33.07-15.88 33.48-16.56Q33.88-17.23 34.90-17.53Q35.91-17.82 37.84-17.82L37.84-17.82L49.27-17.82Q51.21-17.82 52.22-17.53Q53.23-17.23 53.64-16.56Q54.05-15.88 54.05-14.63L54.05-14.63L54.05-3.65Q54.05-2.38 53.64-1.71Q53.23-1.03 52.22-0.74Q51.21-0.45 49.27-0.45L49.27-0.45L37.84-0.45Q35.91-0.45 34.90-0.74Q33.88-1.03 33.48-1.71Q33.07-2.38 33.07-3.65L33.07-3.65ZM37.84-4.50Q37.84-3.01 39.28-3.01L39.28-3.01L47.83-3.01Q49.27-3.01 49.27-4.50L49.27-4.50L49.27-13.77Q49.27-15.25 47.83-15.25L47.83-15.25L39.28-15.25Q37.84-15.25 37.84-13.77L37.84-13.77L37.84-4.50ZM73.08-17.82L77.85-16.92L77.85-3.65Q77.85-2.38 77.44-1.71Q77.04-1.03 76.03-0.74Q75.02-0.45 73.08-0.45L73.08-0.45L64.62-0.45Q62.69-0.45 61.67-0.74Q60.66-1.03 60.26-1.71Q59.85-2.38 59.85-3.65L59.85-3.65L59.85-17.82L64.62-16.92L64.62-4.50Q64.62-3.01 66.06-3.01L66.06-3.01L71.64-3.01Q73.08-3.01 73.08-4.50L73.08-4.50L73.08-17.82ZM83.30-0.45L83.30-4.32L97.83-4.32Q98.77-4.32 99.36-4.86Q99.94-5.40 99.94-6.57L99.94-6.57L99.94-9.76Q99.94-10.93 99.36-11.47Q98.77-12.01 97.83-12.01L97.83-12.01L90.49-12.01Q87.57-12.01 86.02-12.46Q84.46-12.91 83.88-13.93Q83.30-14.94 83.30-16.83L83.30-16.83L83.30-21.73Q83.30-23.63 83.88-24.64Q84.46-25.65 86.02-26.10Q87.57-26.55 90.49-26.55L90.49-26.55L107.14-26.55L107.14-22.68L92.61-22.68Q91.66-22.68 91.08-22.14Q90.49-21.60 90.49-20.43L90.49-20.43L90.49-18.13Q90.49-16.96 91.08-16.43Q91.66-15.88 92.61-15.88L92.61-15.88L99.94-15.88Q102.87-15.88 104.42-15.43Q105.97-14.98 106.56-13.97Q107.14-12.96 107.14-11.07L107.14-11.07L107.14-5.26Q107.14-3.38 106.56-2.36Q105.97-1.35 104.42-0.90Q102.87-0.45 99.94-0.45L99.94-0.45L83.30-0.45ZM111.37-3.65L111.37-14.63Q111.37-15.88 111.78-16.56Q112.18-17.23 113.20-17.53Q114.21-17.82 116.14-17.82L116.14-17.82L127.57-17.82Q129.51-17.82 130.52-17.53Q131.53-17.23 131.94-16.56Q132.34-15.88 132.34-14.63L132.34-14.63L132.34-3.65Q132.34-2.38 131.94-1.71Q131.53-1.03 130.52-0.74Q129.51-0.45 127.57-0.45L127.57-0.45L116.14-0.45Q114.21-0.45 113.20-0.74Q112.18-1.03 111.78-1.71Q111.37-2.38 111.37-3.65L111.37-3.65ZM116.14-4.50Q116.14-3.01 117.58-3.01L117.58-3.01L126.13-3.01Q127.57-3.01 127.57-4.50L127.57-4.50L127.57-13.77Q127.57-15.25 126.13-15.25L126.13-15.25L117.58-15.25Q116.14-15.25 116.14-13.77L116.14-13.77L116.14-4.50Z" transform="translate(-2.025, 26.55)"></path></g> <!----> <!----> <!----> <!----> <!----> <!----> <!----></g> <g fill-rule="" hollow-target="t-name" class="tp-slogan iconsvg-slogansvg" fill="#000000" transform="translate(0,33.099998474121094)"><rect x="0" height="1" y="5.079999923706055" width="38.99499702453613"></rect> <rect height="1" y="5.079999923706055" width="38.99499702453613" x="91.32499504089355"></rect> <g transform="translate(41.99499702453613,0)"><path d="M1.18-9.08L10.81-9.08L10.81 1.16L8.24 1.16L8.24 0.90L8.77 0.36L8.98 0.36Q9.78 0.41 9.74-0.44L9.74-0.44L9.74-7.55Q9.71-8.23 9.01-8.27L9.01-8.27L2.96-8.27Q2.27-8.26 2.24-7.55L2.24-7.55L2.24 1.21L1.18 1.21L1.18-9.08ZM3.02-7.64L3.62-7.16Q3.95-5.58 4.30-4.51L4.30-4.51Q4.70-5.69 4.98-7.16L4.98-7.16L5.58-7.64L5.98-7.64Q5.56-5.23 4.74-3.36L4.74-3.36Q5.17-2.35 5.71-1.49L5.71-1.49L5.92-0.65L5.92-0.04Q4.99-1.16 4.30-2.44L4.30-2.44Q3.64-1.16 2.69-0.04L2.69-0.04L2.69-0.65L2.89-1.49Q3.40-2.33 3.86-3.35L3.86-3.35Q2.98-5.33 2.62-7.64L2.62-7.64L3.02-7.64ZM9.37-7.64Q8.95-5.22 8.12-3.36L8.12-3.36Q8.56-2.35 9.10-1.49L9.10-1.49L9.31-0.65L9.31-0.04Q8.38-1.16 7.68-2.45L7.68-2.45Q7.00-1.19 6.07-0.04L6.07-0.04L6.07-0.65L6.28-1.49Q6.79-2.35 7.25-3.36L7.25-3.36Q6.41-5.23 6.01-7.64L6.01-7.64L6.41-7.64L7.00-7.16Q7.21-5.87 7.68-4.51L7.68-4.51Q8.12-5.86 8.36-7.16L8.36-7.16L8.95-7.64L9.37-7.64ZM17.17-7.78L17.58-7.78L18.24-7.12L18.24-0.11L19.88-0.11L19.88-9.68L20.29-9.68L20.99-9L20.99-6.29L22.68-6.29L23.22-5.77L23.22-5.51L20.99-5.51L20.99-0.11L23.03-0.11L23.57 0.43L23.57 0.68L16.13 0.68L15.59 0.14L15.59-0.11L17.17-0.11L17.17-7.78ZM12.47-0.79L12.92-1.30Q13.68-1.39 14.02-1.46L14.02-1.46L14.02-6.29L13.10-6.29L12.60-6.80L12.60-7.06L14.02-7.06L14.02-9.67L14.41-9.67L15.08-9.01L15.08-7.06L15.92-7.06L16.46-6.54L16.46-6.29L15.08-6.29L15.08-1.70Q15.96-1.93 16.60-2.16L16.60-2.16L16.60-1.85L16.25-1.26Q14.76-0.60 12.47-0.25L12.47-0.25L12.47-0.79ZM25.66-9.20L34.02-9.20L34.02-6.17L26.75-6.17L26.75-5.56Q26.74-5.16 26.92-4.97Q27.11-4.79 27.52-4.80L27.52-4.80L33.84-4.80Q34.49-4.79 34.45-5.39L34.45-5.39L34.91-5.86L35.33-5.86L35.33-4.04L25.66-4.04L25.66-9.20ZM26.75-6.91L32.95-6.91L32.95-7.88Q32.93-8.42 32.39-8.45L32.39-8.45L27.31-8.45Q26.77-8.42 26.75-7.88L26.75-7.88L26.75-6.91ZM32.09-3.88L32.54-3.88L33.22-3.22L33.22-3.10L35.02-3.10L35.54-2.59L35.54-2.34L33.22-2.34L33.22 1.19L30.23 1.19L30.23 0.95L30.73 0.44L31.42 0.44Q32.10 0.46 32.09-0.23L32.09-0.23L32.09-2.34L24.97-2.34L24.46-2.84L24.46-3.10L32.09-3.10L32.09-3.88ZM26.89-1.98L27.61-1.61Q28.31-0.77 28.68 0.22L28.68 0.22L28.07 0.22L27.37-0.29Q26.99-1.08 26.32-1.98L26.32-1.98L26.89-1.98ZM36.46-4.79L37.22-4.79L37.22-8.72L38.33-8.72Q38.45-8.96 38.53-9.28L38.53-9.28L39.07-9.70L39.66-9.70Q39.56-9.22 39.36-8.72L39.36-8.72L40.88-8.72L40.88 1.15L38.87 1.15L38.87 0.89L39.31 0.43Q39.66 0.46 39.82 0.31Q39.97 0.17 39.96-0.14L39.96-0.14L39.96-4.06L38.16-4.06L38.16-2.75Q38.23 0.30 36.50 1.44L36.50 1.44L36.50 0.97L36.66 0.28Q37.26-0.86 37.22-2.72L37.22-2.72L37.22-4.06L36.96-4.06L36.46-4.56L36.46-4.79ZM43.56-9.66L44.06-9.66L44.70-9.05L44.70-8.36L46.61-8.36L47.12-7.85L47.12-7.60L41.80-7.60L41.28-8.11L41.28-8.36L43.56-8.36L43.56-9.66ZM38.16-4.79L39.96-4.79L39.96-7.51Q39.95-7.75 39.83-7.87Q39.71-7.99 39.46-8.00L39.46-8.00L38.64-8.00Q38.17-7.99 38.16-7.51L38.16-7.51L38.16-4.79ZM38.81-7.26L39.23-6.96Q39.52-6.20 39.65-5.41L39.65-5.41L39.22-5.41L38.78-5.77Q38.75-6.13 38.48-6.92L38.48-6.92Q38.46-7.00 38.42-7.10Q38.39-7.20 38.40-7.26L38.40-7.26L38.81-7.26ZM42.13-6.11L45.83-6.11L45.83-0.24Q45.82 0.02 45.93 0.14Q46.04 0.25 46.30 0.24L46.30 0.24Q46.79 0.25 46.78-0.28L46.78-0.28L46.78-0.55L47.18-0.96L47.51-0.96L47.51 1.01L44.78 1.01L44.78-4.90Q44.77-5.34 44.33-5.35L44.33-5.35L43.62-5.35Q43.19-5.34 43.18-4.88L43.18-4.88L43.18-3.64L43.19-3.24Q43.19 0.22 41.04 1.46L41.04 1.46L41.04 1.03L41.22 0.28Q41.59-0.30 41.78-0.80Q41.98-1.31 42.05-1.96Q42.13-2.62 42.13-3.67L42.13-3.67L42.13-6.11ZM38.77-3.28L39.23-2.99Q39.56-2.23 39.68-1.28L39.68-1.28L39.24-1.28L38.81-1.64Q38.75-2.22 38.36-3.28L38.36-3.28L38.77-3.28Z" transform="translate(-1.176, 9.696)"></path></g></g></g></g><mask id="c45ed80a-dc15-450e-8783-1b3c0fe0165d"><g fill-rule="" class="tp-name iconsvg-namesvg" transform="translate(0,0)" fill="white"><g><path d="M21.82-26.55Q24.75-26.55 26.30-26.10Q27.86-25.65 28.44-24.64Q29.02-23.63 29.02-21.73L29.02-21.73L29.02-5.26Q29.02-3.38 28.44-2.36Q27.86-1.35 26.30-0.90Q24.75-0.45 21.82-0.45L21.82-0.45L11.03-0.45L11.03-4.32L19.71-4.32Q20.65-4.32 21.24-4.86Q21.82-5.40 21.82-6.57L21.82-6.57L21.82-20.43Q21.82-21.60 21.24-22.14Q20.65-22.68 19.71-22.68L19.71-22.68L9.22-22.68L9.22-0.45L2.02-0.45L2.02-26.55L21.82-26.55ZM33.07-3.65L33.07-14.63Q33.07-15.88 33.48-16.56Q33.88-17.23 34.90-17.53Q35.91-17.82 37.84-17.82L37.84-17.82L49.27-17.82Q51.21-17.82 52.22-17.53Q53.23-17.23 53.64-16.56Q54.05-15.88 54.05-14.63L54.05-14.63L54.05-3.65Q54.05-2.38 53.64-1.71Q53.23-1.03 52.22-0.74Q51.21-0.45 49.27-0.45L49.27-0.45L37.84-0.45Q35.91-0.45 34.90-0.74Q33.88-1.03 33.48-1.71Q33.07-2.38 33.07-3.65L33.07-3.65ZM37.84-4.50Q37.84-3.01 39.28-3.01L39.28-3.01L47.83-3.01Q49.27-3.01 49.27-4.50L49.27-4.50L49.27-13.77Q49.27-15.25 47.83-15.25L47.83-15.25L39.28-15.25Q37.84-15.25 37.84-13.77L37.84-13.77L37.84-4.50ZM73.08-17.82L77.85-16.92L77.85-3.65Q77.85-2.38 77.44-1.71Q77.04-1.03 76.03-0.74Q75.02-0.45 73.08-0.45L73.08-0.45L64.62-0.45Q62.69-0.45 61.67-0.74Q60.66-1.03 60.26-1.71Q59.85-2.38 59.85-3.65L59.85-3.65L59.85-17.82L64.62-16.92L64.62-4.50Q64.62-3.01 66.06-3.01L66.06-3.01L71.64-3.01Q73.08-3.01 73.08-4.50L73.08-4.50L73.08-17.82ZM83.30-0.45L83.30-4.32L97.83-4.32Q98.77-4.32 99.36-4.86Q99.94-5.40 99.94-6.57L99.94-6.57L99.94-9.76Q99.94-10.93 99.36-11.47Q98.77-12.01 97.83-12.01L97.83-12.01L90.49-12.01Q87.57-12.01 86.02-12.46Q84.46-12.91 83.88-13.93Q83.30-14.94 83.30-16.83L83.30-16.83L83.30-21.73Q83.30-23.63 83.88-24.64Q84.46-25.65 86.02-26.10Q87.57-26.55 90.49-26.55L90.49-26.55L107.14-26.55L107.14-22.68L92.61-22.68Q91.66-22.68 91.08-22.14Q90.49-21.60 90.49-20.43L90.49-20.43L90.49-18.13Q90.49-16.96 91.08-16.43Q91.66-15.88 92.61-15.88L92.61-15.88L99.94-15.88Q102.87-15.88 104.42-15.43Q105.97-14.98 106.56-13.97Q107.14-12.96 107.14-11.07L107.14-11.07L107.14-5.26Q107.14-3.38 106.56-2.36Q105.97-1.35 104.42-0.90Q102.87-0.45 99.94-0.45L99.94-0.45L83.30-0.45ZM111.37-3.65L111.37-14.63Q111.37-15.88 111.78-16.56Q112.18-17.23 113.20-17.53Q114.21-17.82 116.14-17.82L116.14-17.82L127.57-17.82Q129.51-17.82 130.52-17.53Q131.53-17.23 131.94-16.56Q132.34-15.88 132.34-14.63L132.34-14.63L132.34-3.65Q132.34-2.38 131.94-1.71Q131.53-1.03 130.52-0.74Q129.51-0.45 127.57-0.45L127.57-0.45L116.14-0.45Q114.21-0.45 113.20-0.74Q112.18-1.03 111.78-1.71Q111.37-2.38 111.37-3.65L111.37-3.65ZM116.14-4.50Q116.14-3.01 117.58-3.01L117.58-3.01L126.13-3.01Q127.57-3.01 127.57-4.50L127.57-4.50L127.57-13.77Q127.57-15.25 126.13-15.25L126.13-15.25L117.58-15.25Q116.14-15.25 116.14-13.77L116.14-13.77L116.14-4.50Z" transform="translate(-2.025, 26.55)"></path></g>       </g> <rect fill="#000" x="0" y="0" width="134.3199920654297" height="15.15999984741211" transform="translate(-2, 31.099998474121094)"></rect><g fill-rule="" hollow-target="t-name" class="tp-slogan iconsvg-slogansvg" transform="translate(0,33.099998474121094)" fill="#fff"><rect x="0" height="1" y="5.079999923706055" width="38.99499702453613"></rect> <rect height="1" y="5.079999923706055" width="38.99499702453613" x="91.32499504089355"></rect> <g transform="translate(41.99499702453613,0)"><path d="M1.18-9.08L10.81-9.08L10.81 1.16L8.24 1.16L8.24 0.90L8.77 0.36L8.98 0.36Q9.78 0.41 9.74-0.44L9.74-0.44L9.74-7.55Q9.71-8.23 9.01-8.27L9.01-8.27L2.96-8.27Q2.27-8.26 2.24-7.55L2.24-7.55L2.24 1.21L1.18 1.21L1.18-9.08ZM3.02-7.64L3.62-7.16Q3.95-5.58 4.30-4.51L4.30-4.51Q4.70-5.69 4.98-7.16L4.98-7.16L5.58-7.64L5.98-7.64Q5.56-5.23 4.74-3.36L4.74-3.36Q5.17-2.35 5.71-1.49L5.71-1.49L5.92-0.65L5.92-0.04Q4.99-1.16 4.30-2.44L4.30-2.44Q3.64-1.16 2.69-0.04L2.69-0.04L2.69-0.65L2.89-1.49Q3.40-2.33 3.86-3.35L3.86-3.35Q2.98-5.33 2.62-7.64L2.62-7.64L3.02-7.64ZM9.37-7.64Q8.95-5.22 8.12-3.36L8.12-3.36Q8.56-2.35 9.10-1.49L9.10-1.49L9.31-0.65L9.31-0.04Q8.38-1.16 7.68-2.45L7.68-2.45Q7.00-1.19 6.07-0.04L6.07-0.04L6.07-0.65L6.28-1.49Q6.79-2.35 7.25-3.36L7.25-3.36Q6.41-5.23 6.01-7.64L6.01-7.64L6.41-7.64L7.00-7.16Q7.21-5.87 7.68-4.51L7.68-4.51Q8.12-5.86 8.36-7.16L8.36-7.16L8.95-7.64L9.37-7.64ZM17.17-7.78L17.58-7.78L18.24-7.12L18.24-0.11L19.88-0.11L19.88-9.68L20.29-9.68L20.99-9L20.99-6.29L22.68-6.29L23.22-5.77L23.22-5.51L20.99-5.51L20.99-0.11L23.03-0.11L23.57 0.43L23.57 0.68L16.13 0.68L15.59 0.14L15.59-0.11L17.17-0.11L17.17-7.78ZM12.47-0.79L12.92-1.30Q13.68-1.39 14.02-1.46L14.02-1.46L14.02-6.29L13.10-6.29L12.60-6.80L12.60-7.06L14.02-7.06L14.02-9.67L14.41-9.67L15.08-9.01L15.08-7.06L15.92-7.06L16.46-6.54L16.46-6.29L15.08-6.29L15.08-1.70Q15.96-1.93 16.60-2.16L16.60-2.16L16.60-1.85L16.25-1.26Q14.76-0.60 12.47-0.25L12.47-0.25L12.47-0.79ZM25.66-9.20L34.02-9.20L34.02-6.17L26.75-6.17L26.75-5.56Q26.74-5.16 26.92-4.97Q27.11-4.79 27.52-4.80L27.52-4.80L33.84-4.80Q34.49-4.79 34.45-5.39L34.45-5.39L34.91-5.86L35.33-5.86L35.33-4.04L25.66-4.04L25.66-9.20ZM26.75-6.91L32.95-6.91L32.95-7.88Q32.93-8.42 32.39-8.45L32.39-8.45L27.31-8.45Q26.77-8.42 26.75-7.88L26.75-7.88L26.75-6.91ZM32.09-3.88L32.54-3.88L33.22-3.22L33.22-3.10L35.02-3.10L35.54-2.59L35.54-2.34L33.22-2.34L33.22 1.19L30.23 1.19L30.23 0.95L30.73 0.44L31.42 0.44Q32.10 0.46 32.09-0.23L32.09-0.23L32.09-2.34L24.97-2.34L24.46-2.84L24.46-3.10L32.09-3.10L32.09-3.88ZM26.89-1.98L27.61-1.61Q28.31-0.77 28.68 0.22L28.68 0.22L28.07 0.22L27.37-0.29Q26.99-1.08 26.32-1.98L26.32-1.98L26.89-1.98ZM36.46-4.79L37.22-4.79L37.22-8.72L38.33-8.72Q38.45-8.96 38.53-9.28L38.53-9.28L39.07-9.70L39.66-9.70Q39.56-9.22 39.36-8.72L39.36-8.72L40.88-8.72L40.88 1.15L38.87 1.15L38.87 0.89L39.31 0.43Q39.66 0.46 39.82 0.31Q39.97 0.17 39.96-0.14L39.96-0.14L39.96-4.06L38.16-4.06L38.16-2.75Q38.23 0.30 36.50 1.44L36.50 1.44L36.50 0.97L36.66 0.28Q37.26-0.86 37.22-2.72L37.22-2.72L37.22-4.06L36.96-4.06L36.46-4.56L36.46-4.79ZM43.56-9.66L44.06-9.66L44.70-9.05L44.70-8.36L46.61-8.36L47.12-7.85L47.12-7.60L41.80-7.60L41.28-8.11L41.28-8.36L43.56-8.36L43.56-9.66ZM38.16-4.79L39.96-4.79L39.96-7.51Q39.95-7.75 39.83-7.87Q39.71-7.99 39.46-8.00L39.46-8.00L38.64-8.00Q38.17-7.99 38.16-7.51L38.16-7.51L38.16-4.79ZM38.81-7.26L39.23-6.96Q39.52-6.20 39.65-5.41L39.65-5.41L39.22-5.41L38.78-5.77Q38.75-6.13 38.48-6.92L38.48-6.92Q38.46-7.00 38.42-7.10Q38.39-7.20 38.40-7.26L38.40-7.26L38.81-7.26ZM42.13-6.11L45.83-6.11L45.83-0.24Q45.82 0.02 45.93 0.14Q46.04 0.25 46.30 0.24L46.30 0.24Q46.79 0.25 46.78-0.28L46.78-0.28L46.78-0.55L47.18-0.96L47.51-0.96L47.51 1.01L44.78 1.01L44.78-4.90Q44.77-5.34 44.33-5.35L44.33-5.35L43.62-5.35Q43.19-5.34 43.18-4.88L43.18-4.88L43.18-3.64L43.19-3.24Q43.19 0.22 41.04 1.46L41.04 1.46L41.04 1.03L41.22 0.28Q41.59-0.30 41.78-0.80Q41.98-1.31 42.05-1.96Q42.13-2.62 42.13-3.67L42.13-3.67L42.13-6.11ZM38.77-3.28L39.23-2.99Q39.56-2.23 39.68-1.28L39.68-1.28L39.24-1.28L38.81-1.64Q38.75-2.22 38.36-3.28L38.36-3.28L38.77-3.28Z" transform="translate(-1.176, 9.696)"></path></g></g></mask></svg>